<?xml version="1.0" encoding="UTF-8" standalone="no"?>
<!-- Created with Inkscape (http://www.inkscape.org/) -->

<svg
   xmlns:dc="http://purl.org/dc/elements/1.1/"
   xmlns:cc="http://creativecommons.org/ns#"
   xmlns:rdf="http://www.w3.org/1999/02/22-rdf-syntax-ns#"
   xmlns:svg="http://www.w3.org/2000/svg"
   xmlns="http://www.w3.org/2000/svg"
   xmlns:sodipodi="http://sodipodi.sourceforge.net/DTD/sodipodi-0.dtd"
   xmlns:inkscape="http://www.inkscape.org/namespaces/inkscape"
   width="170mm"
   height="40mm"
   viewBox="0 0 170 40"
   version="1.1"
   id="svg935"
   inkscape:version="0.92.4 (5da689c313, 2019-01-14)"
   sodipodi:docname="tecta.svg">
  <defs
     id="defs929" />
  <sodipodi:namedview
     id="base"
     pagecolor="#ffffff"
     bordercolor="#666666"
     borderopacity="1.0"
     inkscape:pageopacity="0.0"
     inkscape:pageshadow="2"
     inkscape:zoom="1.4"
     inkscape:cx="195.36832"
     inkscape:cy="151.38692"
     inkscape:document-units="mm"
     inkscape:current-layer="layer1"
     showgrid="false"
     inkscape:window-width="1920"
     inkscape:window-height="1007"
     inkscape:window-x="-9"
     inkscape:window-y="-9"
     inkscape:window-maximized="1" />
  <metadata
     id="metadata932">
    <rdf:RDF>
      <cc:Work
         rdf:about="">
        <dc:format>image/svg+xml</dc:format>
        <dc:type
           rdf:resource="http://purl.org/dc/dcmitype/StillImage" />
        <dc:title />
      </cc:Work>
    </rdf:RDF>
  </metadata>
  <g
     inkscape:label="Layer 1"
     inkscape:groupmode="layer"
     id="layer1"
     transform="translate(0,-257)">
    <g
       aria-label="IMMOBILIEN GMBH"
       transform="scale(0.96602216,1.0351729)"
       style="font-style:normal;font-weight:normal;font-size:8.05178833px;line-height:12;font-family:sans-serif;letter-spacing:0px;word-spacing:0px;fill:#3c3c76;fill-opacity:1;stroke:none;stroke-width:0.26458332"
       id="text1378">
      <path
         d="m 63.55783,284.78604 v -5.81474 h 0.821691 v 5.81474 z"
         style="font-style:normal;font-variant:normal;font-weight:normal;font-stretch:normal;font-family:'Swis721 Ex BT';-inkscape-font-specification:'Swis721 Ex BT';fill:#3c3c76;fill-opacity:1;stroke-width:0.26458332"
         id="path831" />
      <path
         d="m 65.78308,284.78604 v -5.81474 h 1.238434 l 2.248839,5.06775 2.29995,-5.06775 h 1.226639 v 5.81474 h -0.805965 l 0.04718,-5.20929 -2.35106,5.20929 h -0.837417 l -2.311744,-5.20929 0.05111,5.20929 z"
         style="font-style:normal;font-variant:normal;font-weight:normal;font-stretch:normal;font-family:'Swis721 Ex BT';-inkscape-font-specification:'Swis721 Ex BT';fill:#3c3c76;fill-opacity:1;stroke-width:0.26458332"
         id="path833" />
      <path
         d="m 74.133665,284.78604 v -5.81474 h 1.238434 l 2.248839,5.06775 2.29995,-5.06775 h 1.226639 v 5.81474 h -0.805965 l 0.04718,-5.20929 -2.35106,5.20929 h -0.837417 l -2.311744,-5.20929 0.05111,5.20929 z"
         style="font-style:normal;font-variant:normal;font-weight:normal;font-stretch:normal;font-family:'Swis721 Ex BT';-inkscape-font-specification:'Swis721 Ex BT';fill:#3c3c76;fill-opacity:1;stroke-width:0.26458332"
         id="path835" />
      <path
         d="m 83.015006,281.88064 q 0,1.07724 0.617252,1.68269 0.617251,0.60153 1.718081,0.60153 1.096899,0 1.710219,-0.60546 0.617252,-0.60546 0.617252,-1.67876 0,-1.07725 -0.617252,-1.6827 -0.617251,-0.60546 -1.718082,-0.60546 -1.096899,0 -1.71415,0.60546 -0.61332,0.60545 -0.61332,1.6827 z m -0.853143,0 q 0,-1.4075 0.857075,-2.23312 0.861007,-0.82955 2.331401,-0.82955 1.466464,0 2.323539,0.82955 0.857075,0.82562 0.857075,2.23312 0,1.40749 -0.861007,2.23311 -0.857075,0.82562 -2.32747,0.82562 -1.466463,0 -2.323538,-0.82562 -0.857075,-0.82562 -0.857075,-2.23311 z"
         style="font-style:normal;font-variant:normal;font-weight:normal;font-stretch:normal;font-family:'Swis721 Ex BT';-inkscape-font-specification:'Swis721 Ex BT';fill:#3c3c76;fill-opacity:1;stroke-width:0.26458332"
         id="path837" />
      <path
         d="m 92.627617,282.14405 h -2.260634 v 1.85175 h 2.142688 q 0.731266,0 1.057583,-0.20837 0.326318,-0.20837 0.326318,-0.66836 0,-0.50717 -0.302729,-0.73913 -0.302728,-0.23589 -0.963226,-0.23589 z m -0.01573,-2.43755 h -2.244908 v 1.68269 h 2.067988 q 0.711609,0 0.998611,-0.19264 0.290934,-0.19658 0.290934,-0.65264 0,-0.44033 -0.263413,-0.63691 -0.263413,-0.2005 -0.849212,-0.2005 z m 0.169056,-0.7352 q 0.849212,0 1.30527,0.38136 0.45999,0.38136 0.45999,1.0851 0,0.46392 -0.228029,0.78238 -0.228029,0.31452 -0.691951,0.4993 0.554347,0.10615 0.845281,0.46392 0.290934,0.35384 0.290934,0.91212 0,0.86101 -0.503237,1.27775 -0.503237,0.41281 -1.556889,0.41281 h -3.157024 v -5.81474 z"
         style="font-style:normal;font-variant:normal;font-weight:normal;font-stretch:normal;font-family:'Swis721 Ex BT';-inkscape-font-specification:'Swis721 Ex BT';fill:#3c3c76;fill-opacity:1;stroke-width:0.26458332"
         id="path839" />
      <path
         d="m 95.85934,284.78604 v -5.81474 h 0.821691 v 5.81474 z"
         style="font-style:normal;font-variant:normal;font-weight:normal;font-stretch:normal;font-family:'Swis721 Ex BT';-inkscape-font-specification:'Swis721 Ex BT';fill:#3c3c76;fill-opacity:1;stroke-width:0.26458332"
         id="path841" />
      <path
         d="m 98.084591,284.78604 v -5.81474 h 0.821691 v 5.03237 h 3.558038 v 0.78237 z"
         style="font-style:normal;font-variant:normal;font-weight:normal;font-stretch:normal;font-family:'Swis721 Ex BT';-inkscape-font-specification:'Swis721 Ex BT';fill:#3c3c76;fill-opacity:1;stroke-width:0.26458332"
         id="path843" />
      <path
         d="m 103.29781,284.78604 v -5.81474 h 0.82169 v 5.81474 z"
         style="font-style:normal;font-variant:normal;font-weight:normal;font-stretch:normal;font-family:'Swis721 Ex BT';-inkscape-font-specification:'Swis721 Ex BT';fill:#3c3c76;fill-opacity:1;stroke-width:0.26458332"
         id="path845" />
      <path
         d="m 105.52306,284.78604 v -5.81474 h 4.62349 v 0.74306 h -3.8018 v 1.71415 h 3.56591 v 0.76665 h -3.56591 v 1.80851 h 3.85684 v 0.78237 z"
         style="font-style:normal;font-variant:normal;font-weight:normal;font-stretch:normal;font-family:'Swis721 Ex BT';-inkscape-font-specification:'Swis721 Ex BT';fill:#3c3c76;fill-opacity:1;stroke-width:0.26458332"
         id="path847" />
      <path
         d="M 111.24738,284.78604 V 278.9713 H 112.36 l 3.66026,4.9616 v -4.9616 h 0.7981 v 5.81474 h -1.10869 l -3.65633,-4.9616 v 4.9616 z"
         style="font-style:normal;font-variant:normal;font-weight:normal;font-stretch:normal;font-family:'Swis721 Ex BT';-inkscape-font-specification:'Swis721 Ex BT';fill:#3c3c76;fill-opacity:1;stroke-width:0.26458332"
         id="path849" />
      <path
         d="m 125.53458,280.80733 q -0.16512,-0.58187 -0.68015,-0.89639 -0.51504,-0.31846 -1.30134,-0.31846 -1.01434,0 -1.60407,0.61725 -0.5858,0.61332 -0.5858,1.67091 0,1.04972 0.5858,1.66697 0.5858,0.61725 1.58048,0.61725 0.89639,0 1.47432,-0.46785 0.58187,-0.47179 0.6605,-1.26203 h -1.84389 v -0.76665 h 2.60661 v 3.11771 h -0.57007 l -0.0826,-0.97502 q -0.33812,0.55435 -0.91605,0.84135 -0.57401,0.287 -1.33673,0.287 -1.35244,0 -2.1702,-0.83742 -0.81776,-0.83741 -0.81776,-2.22131 0,-1.41536 0.82955,-2.23705 0.82955,-0.82562 2.25277,-0.82562 1.12442,0 1.895,0.56221 0.77452,0.56221 0.86101,1.42715 z"
         style="font-style:normal;font-variant:normal;font-weight:normal;font-stretch:normal;font-family:'Swis721 Ex BT';-inkscape-font-specification:'Swis721 Ex BT';fill:#3c3c76;fill-opacity:1;stroke-width:0.26458332"
         id="path851" />
      <path
         d="m 127.79129,284.78604 v -5.81474 h 1.23843 l 2.24884,5.06775 2.29995,-5.06775 h 1.22664 v 5.81474 h -0.80597 l 0.0472,-5.20929 -2.35106,5.20929 h -0.83741 l -2.31175,-5.20929 0.0511,5.20929 z"
         style="font-style:normal;font-variant:normal;font-weight:normal;font-stretch:normal;font-family:'Swis721 Ex BT';-inkscape-font-specification:'Swis721 Ex BT';fill:#3c3c76;fill-opacity:1;stroke-width:0.26458332"
         id="path853" />
      <path
         d="m 139.2242,282.14405 h -2.26064 v 1.85175 h 2.14269 q 0.73127,0 1.05758,-0.20837 0.32632,-0.20837 0.32632,-0.66836 0,-0.50717 -0.30273,-0.73913 -0.30272,-0.23589 -0.96322,-0.23589 z m -0.0157,-2.43755 h -2.24491 v 1.68269 h 2.06799 q 0.71161,0 0.99861,-0.19264 0.29094,-0.19658 0.29094,-0.65264 0,-0.44033 -0.26342,-0.63691 -0.26341,-0.2005 -0.84921,-0.2005 z m 0.16906,-0.7352 q 0.84921,0 1.30527,0.38136 0.45999,0.38136 0.45999,1.0851 0,0.46392 -0.22803,0.78238 -0.22803,0.31452 -0.69195,0.4993 0.55434,0.10615 0.84528,0.46392 0.29093,0.35384 0.29093,0.91212 0,0.86101 -0.50323,1.27775 -0.50324,0.41281 -1.55689,0.41281 h -3.15703 v -5.81474 z"
         style="font-style:normal;font-variant:normal;font-weight:normal;font-stretch:normal;font-family:'Swis721 Ex BT';-inkscape-font-specification:'Swis721 Ex BT';fill:#3c3c76;fill-opacity:1;stroke-width:0.26458332"
         id="path855" />
      <path
         d="m 142.40087,284.78604 v -5.81474 h 0.8217 v 2.34319 h 3.54231 v -2.34319 h 0.82169 v 5.81474 h -0.82169 v -2.7049 h -3.54231 v 2.7049 z"
         style="font-style:normal;font-variant:normal;font-weight:normal;font-stretch:normal;font-family:'Swis721 Ex BT';-inkscape-font-specification:'Swis721 Ex BT';fill:#3c3c76;fill-opacity:1;stroke-width:0.26458332"
         id="path857" />
    </g>
    <path
       inkscape:connector-curvature="0"
       id="path846"
       d="m 27.34411,285.28032 v -1.85208 H 13.566381 c -12.97921982,0 -13.77256982,-0.0268 -13.68859982,-0.46302 0.0833,-0.4328 0.98269,-0.4675 13.77773982,-0.53155 13.555379,-0.0679 13.688589,-0.0634 13.688589,0.46302 0,0.51897 0.16592,0.53155 7.011461,0.53155 h 7.011461 v 1.85208 1.85209 H 34.355571 27.34411 Z"
       style="fill:#f6c956;stroke-width:1"
       sodipodi:nodetypes="ccscssscccccc"
       inkscape:export-xdpi="300"
       inkscape:export-ydpi="300" />
    <path
       inkscape:connector-curvature="0"
       id="path844"
       d="m 42.425363,276.28449 c 0,-3.34698 0.0923,-6.08542 0.20506,-6.08542 0.112789,0 1.065289,0.86601 2.116669,1.92445 l 1.911609,1.92445 v 4.16097 4.16097 h -2.116669 -2.116669 z"
       style="fill:#49b7e8;stroke-width:1"
       sodipodi:nodetypes="ssccccccs"
       inkscape:export-xdpi="300"
       inkscape:export-ydpi="300" />
    <path
       inkscape:connector-curvature="0"
       id="path842"
       d="m 41.367032,289.38136 c 0,-2.07256 0.0415,-2.24895 0.529169,-2.24895 0.487659,0 0.529162,0.17639 0.529162,2.24895 0,2.07257 -0.0415,2.24896 -0.529162,2.24896 -0.487669,0 -0.529169,-0.17639 -0.529169,-2.24896 z m 1.322919,-4.10104 v -1.85208 h 1.98437 1.98438 v 1.85208 1.85209 h -1.98438 -1.98437 z M 27.34411,278.34935 v -4.02056 l 4.898221,-4.90913 4.89821,-4.90913 2.01358,2.05052 c 1.107461,1.12779 2.058421,2.05052 2.11324,2.05052 0.0548,0 0.0997,-1.19062 0.0997,-2.64583 0,-2.46945 0.0353,-2.64583 0.529169,-2.64583 0.500142,0 0.529162,0.17638 0.529162,3.216 0,3.19925 -0.003,3.21351 -0.529162,2.73712 -0.527859,-0.47771 -0.529169,-0.46213 -0.529169,6.30899 v 6.78789 H 34.3556 27.344142 Z"
       style="fill:#3c3c76;fill-opacity:1;stroke-width:1"
       sodipodi:nodetypes="sssssccccccccccccccsssscscccc"
       inkscape:export-xdpi="300"
       inkscape:export-ydpi="300" />
    <path
       inkscape:connector-curvature="0"
       id="path846-3"
       d="m 47.238273,282.9651 c 0.02913,-0.44035 3.057385,-0.46627 61.854357,-0.52936 61.77811,-0.0663 61.82366,-0.066 61.82366,0.46302 0,0.52891 -0.0531,0.52936 -61.85435,0.52936 -58.859917,0 -61.852867,-0.0224 -61.823667,-0.46302 z"
       style="fill:#f6c956;stroke-width:1"
       sodipodi:nodetypes="zsssz"
       inkscape:export-xdpi="300"
       inkscape:export-ydpi="300" />
    <g
       aria-label="TECTA"
       transform="scale(1.0173615,0.98293477)"
       style="font-style:normal;font-weight:normal;font-size:5.04692507px;line-height:12;font-family:sans-serif;letter-spacing:0px;word-spacing:0px;fill:#3c3c76;fill-opacity:1;stroke:none;stroke-width:0.26458329"
       id="text1374">
      <path
         d="M 66.238347,266.81481 V 281.604 h -2.403532 v -14.78919 h -6.451587 v -2.21953 h 15.329705 v 2.21953 z"
         style="font-style:normal;font-variant:normal;font-weight:normal;font-stretch:expanded;font-size:23.55231476px;font-family:'Swis721 Ex BT';-inkscape-font-specification:'Swis721 Ex BT Expanded';fill:#3c3c76;fill-opacity:1;stroke-width:0.26458329"
         id="path820" />
      <path
         d="m 74.541458,281.604 v -17.00872 h 13.52418 v 2.17353 H 76.94499 v 5.01406 h 10.430639 v 2.24253 H 76.94499 v 5.29007 h 11.281651 v 2.28853 z"
         style="font-style:normal;font-variant:normal;font-weight:normal;font-stretch:expanded;font-size:23.55231476px;font-family:'Swis721 Ex BT';-inkscape-font-specification:'Swis721 Ex BT Expanded';fill:#3c3c76;fill-opacity:1;stroke-width:0.26458329"
         id="path822" />
      <path
         d="m 108.27141,275.03742 q -0.34501,3.19704 -2.69104,5.10606 -2.33453,1.90903 -5.934076,1.90903 -4.289557,0 -6.796591,-2.41503 -2.507033,-2.41503 -2.507033,-6.53209 0,-4.11705 2.507033,-6.53209 2.518534,-2.42653 6.819591,-2.42653 3.530546,0 5.830576,1.82853 2.31153,1.81702 2.57604,4.79556 h -2.49554 q -0.3565,-2.04703 -1.93202,-3.19704 -1.57552,-1.16152 -4.002056,-1.16152 -3.208543,0 -5.014067,1.77102 -1.794024,1.77103 -1.794024,4.92207 0,3.13954 1.805524,4.91057 1.805524,1.77102 5.025567,1.77102 2.472536,0 4.128556,-1.28802 1.66752,-1.29951 1.97803,-3.46154 z"
         style="font-style:normal;font-variant:normal;font-weight:normal;font-stretch:expanded;font-size:23.55231476px;font-family:'Swis721 Ex BT';-inkscape-font-specification:'Swis721 Ex BT Expanded';fill:#3c3c76;fill-opacity:1;stroke-width:0.26458329"
         id="path824" />
      <path
         d="M 117.85104,266.81481 V 281.604 h -2.40354 v -14.78919 h -6.45158 v -2.21953 h 15.3297 v 2.21953 z"
         style="font-style:normal;font-variant:normal;font-weight:normal;font-stretch:expanded;font-size:23.55231476px;font-family:'Swis721 Ex BT';-inkscape-font-specification:'Swis721 Ex BT Expanded';fill:#3c3c76;fill-opacity:1;stroke-width:0.26458329"
         id="path826" />
      <path
         d="m 128.50018,274.54291 h 6.68158 l -3.24304,-7.2566 z m -5.81908,7.06109 8.07311,-17.00872 h 2.51853 l 7.5671,17.00872 h -2.49553 l -2.17353,-4.85306 h -8.68262 l -2.26553,4.85306 z"
         style="font-style:normal;font-variant:normal;font-weight:normal;font-stretch:expanded;font-size:23.55231476px;font-family:'Swis721 Ex BT';-inkscape-font-specification:'Swis721 Ex BT Expanded';fill:#3c3c76;fill-opacity:1;stroke-width:0.26458329"
         id="path828" />
    </g>
  </g>
</svg>
