<?xml version="1.0" encoding="UTF-8" standalone="no"?>
<!-- Created with Inkscape (http://www.inkscape.org/) -->

<svg
   xmlns:dc="http://purl.org/dc/elements/1.1/"
   xmlns:cc="http://creativecommons.org/ns#"
   xmlns:rdf="http://www.w3.org/1999/02/22-rdf-syntax-ns#"
   xmlns:svg="http://www.w3.org/2000/svg"
   xmlns="http://www.w3.org/2000/svg"
   xmlns:sodipodi="http://sodipodi.sourceforge.net/DTD/sodipodi-0.dtd"
   xmlns:inkscape="http://www.inkscape.org/namespaces/inkscape"
   width="20mm"
   height="20mm"
   viewBox="0 0 20 20"
   version="1.1"
   id="svg1523"
   inkscape:version="0.92.4 (5da689c313, 2019-01-14)"
   sodipodi:docname="favicon.svg">
  <defs
     id="defs1517">
    <clipPath
       clipPathUnits="userSpaceOnUse"
       id="clipPath2120">
      <rect
         style="opacity:1;vector-effect:none;fill:#895a66;fill-opacity:1;stroke:none;stroke-width:1.99999988;stroke-linecap:butt;stroke-linejoin:miter;stroke-miterlimit:4;stroke-dasharray:none;stroke-dashoffset:0;stroke-opacity:1;paint-order:stroke fill markers"
         id="rect2122"
         width="20.042187"
         height="20.174479"
         x="0.06614583"
         y="276.95782" />
    </clipPath>
    <clipPath
       clipPathUnits="userSpaceOnUse"
       id="clipPath2124">
      <rect
         style="opacity:1;vector-effect:none;fill:#895a66;fill-opacity:1;stroke:none;stroke-width:1.99999988;stroke-linecap:butt;stroke-linejoin:miter;stroke-miterlimit:4;stroke-dasharray:none;stroke-dashoffset:0;stroke-opacity:1;paint-order:stroke fill markers"
         id="rect2126"
         width="20.042187"
         height="20.174479"
         x="0.06614583"
         y="276.95782" />
    </clipPath>
    <clipPath
       clipPathUnits="userSpaceOnUse"
       id="clipPath2128">
      <rect
         style="opacity:1;vector-effect:none;fill:#895a66;fill-opacity:1;stroke:none;stroke-width:1.99999988;stroke-linecap:butt;stroke-linejoin:miter;stroke-miterlimit:4;stroke-dasharray:none;stroke-dashoffset:0;stroke-opacity:1;paint-order:stroke fill markers"
         id="rect2130"
         width="20.042187"
         height="20.174479"
         x="0.06614583"
         y="276.95782" />
    </clipPath>
    <clipPath
       clipPathUnits="userSpaceOnUse"
       id="clipPath2132">
      <rect
         style="opacity:1;vector-effect:none;fill:#895a66;fill-opacity:1;stroke:none;stroke-width:1.99999988;stroke-linecap:butt;stroke-linejoin:miter;stroke-miterlimit:4;stroke-dasharray:none;stroke-dashoffset:0;stroke-opacity:1;paint-order:stroke fill markers"
         id="rect2134"
         width="20.042187"
         height="20.174479"
         x="0.06614583"
         y="276.95782" />
    </clipPath>
  </defs>
  <sodipodi:namedview
     id="base"
     pagecolor="#ffffff"
     bordercolor="#666666"
     borderopacity="1.0"
     inkscape:pageopacity="0.0"
     inkscape:pageshadow="2"
     inkscape:zoom="4"
     inkscape:cx="71.119269"
     inkscape:cy="74.470399"
     inkscape:document-units="mm"
     inkscape:current-layer="layer1"
     showgrid="false"
     inkscape:window-width="1920"
     inkscape:window-height="1007"
     inkscape:window-x="-9"
     inkscape:window-y="-9"
     inkscape:window-maximized="1" />
  <metadata
     id="metadata1520">
    <rdf:RDF>
      <cc:Work
         rdf:about="">
        <dc:format>image/svg+xml</dc:format>
        <dc:type
           rdf:resource="http://purl.org/dc/dcmitype/StillImage" />
        <dc:title></dc:title>
      </cc:Work>
    </rdf:RDF>
  </metadata>
  <g
     inkscape:label="Layer 1"
     inkscape:groupmode="layer"
     id="layer1"
     transform="translate(0,-277)">
    <path
       inkscape:connector-curvature="0"
       id="path846"
       d="m 2.6375732,292.39391 v -1.30215 h -9.925783 c -9.3505202,0 -9.9220672,-0.0188 -9.8615732,-0.32552 0.06001,-0.3043 0.707952,-0.32869 9.9257913,-0.37371 9.7655975,-0.0478 9.8615649,-0.0446 9.8615649,0.32553 0,0.36486 0.1195325,0.3737 5.0512129,0.3737 H 12.74 v 1.30215 1.30215 H 7.6887861 2.6375732 Z"
       style="fill:#f6c956;stroke-width:1.00000012"
       sodipodi:nodetypes="ccscssscccccc"
       inkscape:export-xdpi="300"
       inkscape:export-ydpi="300"
       clip-path="url(#clipPath2132)" />
    <path
       inkscape:connector-curvature="0"
       id="path844"
       d="m 13.579167,293.88207 c 0,-1.58582 0.02924,-2.23456 0.06499,-1.44165 0.03573,0.79291 0.03573,2.0904 0,2.88331 -0.03573,0.79291 -0.06499,0.14416 -0.06499,-1.44166 z m 3.034074,-1.48816 c 0,-0.66502 0.03458,-0.93707 0.07688,-0.60456 0.04229,0.33251 0.04229,0.87661 0,1.20912 -0.04228,0.33252 -0.07688,0.0605 -0.07688,-0.60456 z m -3.110797,-6.32468 c 0,-2.35317 0.06649,-4.27847 0.147731,-4.27847 0.08125,0 0.767457,0.60885 1.524895,1.353 l 1.377166,1.35303 v 2.92545 2.92546 H 15.02734 13.502444 Z m 0.07277,-6.97578 c 3.82e-4,-1.22773 0.03119,-1.70576 0.06858,-1.06231 0.03731,0.64345 0.03703,1.64797 -7.92e-4,2.23224 -0.03761,0.58428 -0.06815,0.0577 -0.0678,-1.16993 z"
       style="fill:#49b7e8;stroke-width:1.00000012"
       sodipodi:nodetypes="ssssscssssccccccsccccc"
       inkscape:export-xdpi="300"
       inkscape:export-ydpi="300"
       clip-path="url(#clipPath2128)" />
    <path
       inkscape:connector-curvature="0"
       id="path842"
       d="m 12.74,295.27722 c 0,-1.45714 0.02989,-1.58116 0.381224,-1.58116 0.35132,0 0.38122,0.12402 0.38122,1.58116 0,1.45716 -0.02989,1.58118 -0.38122,1.58118 -0.351326,0 -0.381224,-0.12402 -0.381224,-1.58118 z m 0.95306,-2.88331 v -1.30215 h 1.429584 1.429592 v 1.30215 1.30215 H 15.122644 13.69306 Z M 2.6375732,287.52096 v -2.82673 l 3.5287877,-3.45145 3.52878,-3.45146 1.4506271,1.44166 c 0.79784,0.79291 1.482932,1.44165 1.522426,1.44165 0.03947,0 0.07183,-0.83708 0.07183,-1.8602 0,-1.73619 0.02543,-1.8602 0.381227,-1.8602 0.360313,0 0.38122,0.12401 0.38122,2.26107 0,2.2493 -0.0023,2.25932 -0.38122,1.92439 -0.380282,-0.33587 -0.381227,-0.32491 -0.381227,4.43564 v 4.77237 H 7.6888075 2.6375967 Z"
       style="fill:#4f5188;stroke-width:1.00000012"
       sodipodi:nodetypes="sssssccccccccccccccsssscscccc"
       inkscape:export-xdpi="300"
       inkscape:export-ydpi="300"
       clip-path="url(#clipPath2124)" />
    <path
       inkscape:connector-curvature="0"
       id="path846-3"
       d="m 16.969633,290.76615 c 0.0015,-0.30959 0.152779,-0.32783 3.090873,-0.37218 3.08706,-0.0466 3.089336,-0.0464 3.089336,0.32553 0,0.37187 -0.0026,0.37219 -3.09087,0.37219 -2.941239,0 -3.090797,-0.0158 -3.089339,-0.32554 z"
       style="fill:#f6c956;stroke-width:1"
       sodipodi:nodetypes="zsssz"
       inkscape:export-xdpi="300"
       inkscape:export-ydpi="300"
       clip-path="url(#clipPath2120)" />
    <path
       inkscape:connector-curvature="0"
       id="path846-31"
       d="m 58.118033,246.18331 c 12.97922,0 13.77257,-0.0268 13.6886,-0.46302 -0.0833,-0.4328 -0.98269,-0.4675 -13.77774,-0.53155 -28.729975,2.93212 -28.005982,0.99457 0.08914,0.99457 z"
       style="fill:#f6c956;stroke-width:1"
       sodipodi:nodetypes="cccc"
       inkscape:export-xdpi="300"
       inkscape:export-ydpi="300" />
  </g>
</svg>
