<?xml version="1.0" encoding="UTF-8" standalone="no"?>
<!-- Created with Inkscape (http://www.inkscape.org/) -->

<svg
   xmlns:dc="http://purl.org/dc/elements/1.1/"
   xmlns:cc="http://creativecommons.org/ns#"
   xmlns:rdf="http://www.w3.org/1999/02/22-rdf-syntax-ns#"
   xmlns:svg="http://www.w3.org/2000/svg"
   xmlns="http://www.w3.org/2000/svg"
   xmlns:sodipodi="http://sodipodi.sourceforge.net/DTD/sodipodi-0.dtd"
   xmlns:inkscape="http://www.inkscape.org/namespaces/inkscape"
   width="128mm"
   height="36mm"
   viewBox="0 0 128 36"
   version="1.1"
   id="svg935"
   inkscape:version="0.92.4 (5da689c313, 2019-01-14)"
   sodipodi:docname="tecta_narrow.svg">
  <defs
     id="defs929" />
  <sodipodi:namedview
     id="base"
     pagecolor="#ffffff"
     bordercolor="#666666"
     borderopacity="1.0"
     inkscape:pageopacity="0.0"
     inkscape:pageshadow="2"
     inkscape:zoom="1.979899"
     inkscape:cx="235.38463"
     inkscape:cy="68.336391"
     inkscape:document-units="mm"
     inkscape:current-layer="layer1"
     showgrid="false"
     inkscape:window-width="1920"
     inkscape:window-height="1007"
     inkscape:window-x="-9"
     inkscape:window-y="-9"
     inkscape:window-maximized="1" />
  <metadata
     id="metadata932">
    <rdf:RDF>
      <cc:Work
         rdf:about="">
        <dc:format>image/svg+xml</dc:format>
        <dc:type
           rdf:resource="http://purl.org/dc/dcmitype/StillImage" />
        <dc:title />
      </cc:Work>
    </rdf:RDF>
  </metadata>
  <g
     inkscape:label="Layer 1"
     inkscape:groupmode="layer"
     id="layer1"
     transform="translate(0,-261)">
    <g
       aria-label="IMMOBILIEN GMBH"
       transform="scale(0.96602219,1.0351729)"
       style="font-style:normal;font-weight:normal;font-size:8.05178833px;line-height:12;font-family:sans-serif;letter-spacing:0px;word-spacing:0px;fill:#3c3c76;fill-opacity:1;stroke:none;stroke-width:0.26458332"
       id="text1378">
      <path
         d="m 44.385562,286.31964 v -5.81474 h 0.821691 v 5.81474 z"
         style="font-style:normal;font-variant:normal;font-weight:normal;font-stretch:normal;font-family:'Swis721 Ex BT';-inkscape-font-specification:'Swis721 Ex BT';fill:#3c3c76;fill-opacity:1;stroke-width:0.26458332"
         id="path847" />
      <path
         d="m 46.610812,286.31964 v -5.81474 h 1.238434 l 2.248839,5.06775 2.29995,-5.06775 h 1.226639 v 5.81474 h -0.805965 l 0.04718,-5.20929 -2.35106,5.20929 h -0.837417 l -2.311744,-5.20929 0.05111,5.20929 z"
         style="font-style:normal;font-variant:normal;font-weight:normal;font-stretch:normal;font-family:'Swis721 Ex BT';-inkscape-font-specification:'Swis721 Ex BT';fill:#3c3c76;fill-opacity:1;stroke-width:0.26458332"
         id="path849" />
      <path
         d="m 54.961397,286.31964 v -5.81474 h 1.238434 l 2.248839,5.06775 2.29995,-5.06775 h 1.226639 v 5.81474 h -0.805965 l 0.04718,-5.20929 -2.35106,5.20929 h -0.837417 l -2.311744,-5.20929 0.05111,5.20929 z"
         style="font-style:normal;font-variant:normal;font-weight:normal;font-stretch:normal;font-family:'Swis721 Ex BT';-inkscape-font-specification:'Swis721 Ex BT';fill:#3c3c76;fill-opacity:1;stroke-width:0.26458332"
         id="path851" />
      <path
         d="m 63.842738,283.41424 q 0,1.07724 0.617252,1.68269 0.617251,0.60153 1.718082,0.60153 1.096898,0 1.710218,-0.60546 0.617252,-0.60546 0.617252,-1.67876 0,-1.07725 -0.617252,-1.6827 -0.617251,-0.60546 -1.718082,-0.60546 -1.096898,0 -1.71415,0.60546 -0.61332,0.60545 -0.61332,1.6827 z m -0.853143,0 q 0,-1.4075 0.857075,-2.23312 0.861007,-0.82955 2.331402,-0.82955 1.466463,0 2.323538,0.82955 0.857075,0.82562 0.857075,2.23312 0,1.40749 -0.861006,2.23311 -0.857076,0.82562 -2.327471,0.82562 -1.466463,0 -2.323538,-0.82562 -0.857075,-0.82562 -0.857075,-2.23311 z"
         style="font-style:normal;font-variant:normal;font-weight:normal;font-stretch:normal;font-family:'Swis721 Ex BT';-inkscape-font-specification:'Swis721 Ex BT';fill:#3c3c76;fill-opacity:1;stroke-width:0.26458332"
         id="path853" />
      <path
         d="m 73.455349,283.67765 h -2.260634 v 1.85175 h 2.142688 q 0.731266,0 1.057583,-0.20837 0.326318,-0.20837 0.326318,-0.66836 0,-0.50717 -0.302728,-0.73913 -0.302729,-0.23589 -0.963227,-0.23589 z m -0.01573,-2.43756 h -2.244908 v 1.6827 h 2.067989 q 0.711608,0 0.99861,-0.19264 0.290934,-0.19658 0.290934,-0.65264 0,-0.44033 -0.263413,-0.63691 -0.263413,-0.20051 -0.849212,-0.20051 z m 0.169056,-0.73519 q 0.849212,0 1.30527,0.38136 0.45999,0.38136 0.45999,1.0851 0,0.46392 -0.228029,0.78238 -0.228029,0.31452 -0.691951,0.4993 0.554347,0.10615 0.845281,0.46392 0.290934,0.35384 0.290934,0.91212 0,0.86101 -0.503237,1.27775 -0.503237,0.41281 -1.556889,0.41281 h -3.157024 v -5.81474 z"
         style="font-style:normal;font-variant:normal;font-weight:normal;font-stretch:normal;font-family:'Swis721 Ex BT';-inkscape-font-specification:'Swis721 Ex BT';fill:#3c3c76;fill-opacity:1;stroke-width:0.26458332"
         id="path855" />
      <path
         d="m 76.687072,286.31964 v -5.81474 h 0.821691 v 5.81474 z"
         style="font-style:normal;font-variant:normal;font-weight:normal;font-stretch:normal;font-family:'Swis721 Ex BT';-inkscape-font-specification:'Swis721 Ex BT';fill:#3c3c76;fill-opacity:1;stroke-width:0.26458332"
         id="path857" />
      <path
         d="m 78.912323,286.31964 v -5.81474 h 0.821691 v 5.03237 h 3.558041 v 0.78237 z"
         style="font-style:normal;font-variant:normal;font-weight:normal;font-stretch:normal;font-family:'Swis721 Ex BT';-inkscape-font-specification:'Swis721 Ex BT';fill:#3c3c76;fill-opacity:1;stroke-width:0.26458332"
         id="path859" />
      <path
         d="m 84.125541,286.31964 v -5.81474 h 0.821691 v 5.81474 z"
         style="font-style:normal;font-variant:normal;font-weight:normal;font-stretch:normal;font-family:'Swis721 Ex BT';-inkscape-font-specification:'Swis721 Ex BT';fill:#3c3c76;fill-opacity:1;stroke-width:0.26458332"
         id="path861" />
      <path
         d="m 86.350792,286.31964 v -5.81474 h 4.623487 v 0.74306 h -3.801796 v 1.71415 h 3.565904 v 0.76665 h -3.565904 v 1.80851 h 3.856838 v 0.78237 z"
         style="font-style:normal;font-variant:normal;font-weight:normal;font-stretch:normal;font-family:'Swis721 Ex BT';-inkscape-font-specification:'Swis721 Ex BT';fill:#3c3c76;fill-opacity:1;stroke-width:0.26458332"
         id="path863" />
      <path
         d="m 92.075107,286.31964 v -5.81474 h 1.112625 l 3.660261,4.9616 v -4.9616 h 0.798103 v 5.81474 h -1.108694 l -3.65633,-4.9616 v 4.9616 z"
         style="font-style:normal;font-variant:normal;font-weight:normal;font-stretch:normal;font-family:'Swis721 Ex BT';-inkscape-font-specification:'Swis721 Ex BT';fill:#3c3c76;fill-opacity:1;stroke-width:0.26458332"
         id="path865" />
      <path
         d="m 106.36231,282.34093 q -0.16512,-0.58187 -0.68015,-0.8964 -0.51503,-0.31845 -1.30134,-0.31845 -1.01434,0 -1.60407,0.61725 -0.5858,0.61332 -0.5858,1.67091 0,1.04972 0.5858,1.66697 0.5858,0.61725 1.58048,0.61725 0.89639,0 1.47433,-0.46785 0.58186,-0.47179 0.66049,-1.26203 h -1.84389 v -0.76665 h 2.60661 v 3.11771 h -0.57007 l -0.0826,-0.97502 q -0.33811,0.55435 -0.91605,0.84135 -0.57401,0.287 -1.33672,0.287 -1.35245,0 -2.17021,-0.83742 -0.81776,-0.83741 -0.81776,-2.22131 0,-1.41536 0.82955,-2.23705 0.82956,-0.82562 2.25277,-0.82562 1.12442,0 1.895,0.56221 0.77452,0.56221 0.86101,1.42715 z"
         style="font-style:normal;font-variant:normal;font-weight:normal;font-stretch:normal;font-family:'Swis721 Ex BT';-inkscape-font-specification:'Swis721 Ex BT';fill:#3c3c76;fill-opacity:1;stroke-width:0.26458332"
         id="path867" />
      <path
         d="m 108.61902,286.31964 v -5.81474 h 1.23843 l 2.24884,5.06775 2.29995,-5.06775 h 1.22664 v 5.81474 h -0.80596 l 0.0472,-5.20929 -2.35106,5.20929 h -0.83741 l -2.31175,-5.20929 0.0511,5.20929 z"
         style="font-style:normal;font-variant:normal;font-weight:normal;font-stretch:normal;font-family:'Swis721 Ex BT';-inkscape-font-specification:'Swis721 Ex BT';fill:#3c3c76;fill-opacity:1;stroke-width:0.26458332"
         id="path869" />
      <path
         d="m 120.05193,283.67765 h -2.26063 v 1.85175 h 2.14268 q 0.73127,0 1.05759,-0.20837 0.32631,-0.20837 0.32631,-0.66836 0,-0.50717 -0.30272,-0.73913 -0.30273,-0.23589 -0.96323,-0.23589 z m -0.0157,-2.43756 h -2.2449 v 1.6827 h 2.06798 q 0.71161,0 0.99861,-0.19264 0.29094,-0.19658 0.29094,-0.65264 0,-0.44033 -0.26341,-0.63691 -0.26342,-0.20051 -0.84922,-0.20051 z m 0.16906,-0.73519 q 0.84921,0 1.30527,0.38136 0.45999,0.38136 0.45999,1.0851 0,0.46392 -0.22803,0.78238 -0.22803,0.31452 -0.69195,0.4993 0.55435,0.10615 0.84528,0.46392 0.29093,0.35384 0.29093,0.91212 0,0.86101 -0.50323,1.27775 -0.50324,0.41281 -1.55689,0.41281 h -3.15703 v -5.81474 z"
         style="font-style:normal;font-variant:normal;font-weight:normal;font-stretch:normal;font-family:'Swis721 Ex BT';-inkscape-font-specification:'Swis721 Ex BT';fill:#3c3c76;fill-opacity:1;stroke-width:0.26458332"
         id="path871" />
      <path
         d="m 123.22861,286.31964 v -5.81474 h 0.82169 v 2.34319 h 3.54231 v -2.34319 h 0.82169 v 5.81474 h -0.82169 v -2.7049 h -3.54231 v 2.7049 z"
         style="font-style:normal;font-variant:normal;font-weight:normal;font-stretch:normal;font-family:'Swis721 Ex BT';-inkscape-font-specification:'Swis721 Ex BT';fill:#3c3c76;fill-opacity:1;stroke-width:0.26458332"
         id="path873" />
    </g>
    <path
       inkscape:connector-curvature="0"
       id="path846"
       d="m 8.8232659,286.86783 v -1.85208 H 8.2747042 c -6.798605,0 -7.95172874,-0.0268 -7.86775874,-0.46302 0.0833,-0.4328 1.10860294,-0.53432 7.95689874,-0.53155 13.5555468,0.005 0.4594217,-0.0634 0.4594217,0.46302 0,0.51897 0.1659197,0.53155 7.0114601,0.53155 h 7.011461 v 1.85208 1.85209 H 15.834726 8.8232659 Z"
       style="fill:#f6c956;stroke-width:1"
       sodipodi:nodetypes="ccscssscccccc"
       inkscape:export-xdpi="300"
       inkscape:export-ydpi="300" />
    <path
       inkscape:connector-curvature="0"
       id="path844"
       d="m 23.904518,277.872 c 0,-3.34698 0.0923,-6.08542 0.20506,-6.08542 0.112789,0 1.065289,0.86601 2.116669,1.92445 l 1.911609,1.92445 v 4.16097 4.16097 h -2.116669 -2.116669 z"
       style="fill:#49b7e8;stroke-width:1"
       sodipodi:nodetypes="ssccccccs"
       inkscape:export-xdpi="300"
       inkscape:export-ydpi="300" />
    <path
       inkscape:connector-curvature="0"
       id="path842"
       d="m 22.846187,290.96887 c 0,-2.07256 0.0415,-2.24895 0.529169,-2.24895 0.487659,0 0.529162,0.17639 0.529162,2.24895 0,2.07257 -0.0415,2.24896 -0.529162,2.24896 -0.487669,0 -0.529169,-0.17639 -0.529169,-2.24896 z m 1.322919,-4.10104 v -1.85208 h 1.98437 1.98438 v 1.85208 1.85209 h -1.98438 -1.98437 z M 8.8232659,279.93686 v -4.02056 l 4.8982201,-4.90913 4.89821,-4.90913 2.01358,2.05052 c 1.107461,1.12779 2.058421,2.05052 2.11324,2.05052 0.0548,0 0.0997,-1.19062 0.0997,-2.64583 0,-2.46945 0.0353,-2.64583 0.529169,-2.64583 0.500142,0 0.529162,0.17638 0.529162,3.216 0,3.19925 -0.003,3.21351 -0.529162,2.73712 -0.527859,-0.47771 -0.529169,-0.46213 -0.529169,6.30899 v 6.78789 H 15.834755 8.8232979 Z"
       style="fill:#3c3c76;fill-opacity:1;stroke-width:1"
       sodipodi:nodetypes="sssssccccccccccccccsssscscccc"
       inkscape:export-xdpi="300"
       inkscape:export-ydpi="300" />
    <path
       inkscape:connector-curvature="0"
       id="path846-3"
       d="m 28.717386,284.55261 c 0.02323,-0.44035 2.438362,-0.46627 49.33081,-0.52936 49.269894,-0.0663 49.306224,-0.066 49.306224,0.46302 0,0.52891 -0.0423,0.52936 -49.330701,0.52936 -46.942648,0 -49.32962,-0.0224 -49.306333,-0.46302 z"
       style="fill:#f6c956;stroke-width:1"
       sodipodi:nodetypes="zsssz"
       inkscape:export-xdpi="300"
       inkscape:export-ydpi="300" />
    <g
       aria-label="TECTA"
       transform="scale(1.0173615,0.98293477)"
       style="font-style:normal;font-weight:normal;font-size:5.04692507px;line-height:12;font-family:sans-serif;letter-spacing:0px;word-spacing:0px;fill:#3c3c76;fill-opacity:1;stroke:none;stroke-width:0.26458329"
       id="text1374">
      <path
         d="m 48.033524,268.42989 v 14.7892 h -2.403532 v -14.7892 h -6.451586 v -2.21953 h 15.329705 v 2.21953 z"
         style="font-style:normal;font-variant:normal;font-weight:normal;font-stretch:expanded;font-size:23.55231476px;font-family:'Swis721 Ex BT';-inkscape-font-specification:'Swis721 Ex BT Expanded';fill:#3c3c76;fill-opacity:1;stroke-width:0.26458329"
         id="path828" />
      <path
         d="m 56.336635,283.21909 v -17.00873 h 13.524181 v 2.17353 H 58.740167 v 5.01406 h 10.43064 v 2.24253 h -10.43064 v 5.29008 h 11.281651 v 2.28853 z"
         style="font-style:normal;font-variant:normal;font-weight:normal;font-stretch:expanded;font-size:23.55231476px;font-family:'Swis721 Ex BT';-inkscape-font-specification:'Swis721 Ex BT Expanded';fill:#3c3c76;fill-opacity:1;stroke-width:0.26458329"
         id="path830" />
      <path
         d="m 90.066587,276.6525 q -0.345005,3.19704 -2.691036,5.10607 -2.334532,1.90902 -5.93408,1.90902 -4.289557,0 -6.79659,-2.41503 -2.507034,-2.41503 -2.507034,-6.53209 0,-4.11705 2.507034,-6.53209 2.518533,-2.42653 6.819591,-2.42653 3.530547,0 5.830578,1.82853 2.31153,1.81702 2.576034,4.79556 h -2.495533 q -0.356505,-2.04703 -1.932026,-3.19704 -1.575521,-1.16152 -4.002054,-1.16152 -3.208543,0 -5.014067,1.77103 -1.794024,1.77102 -1.794024,4.92206 0,3.13954 1.805525,4.91057 1.805524,1.77102 5.025567,1.77102 2.472533,0 4.128555,-1.28802 1.667522,-1.29951 1.978026,-3.46154 z"
         style="font-style:normal;font-variant:normal;font-weight:normal;font-stretch:expanded;font-size:23.55231476px;font-family:'Swis721 Ex BT';-inkscape-font-specification:'Swis721 Ex BT Expanded';fill:#3c3c76;fill-opacity:1;stroke-width:0.26458329"
         id="path832" />
      <path
         d="m 99.646214,268.42989 v 14.7892 h -2.403532 v -14.7892 h -6.451586 v -2.21953 H 106.1208 v 2.21953 z"
         style="font-style:normal;font-variant:normal;font-weight:normal;font-stretch:expanded;font-size:23.55231476px;font-family:'Swis721 Ex BT';-inkscape-font-specification:'Swis721 Ex BT Expanded';fill:#3c3c76;fill-opacity:1;stroke-width:0.26458329"
         id="path834" />
      <path
         d="m 110.29535,276.15799 h 6.68159 l -3.24304,-7.2566 z m -5.81907,7.0611 8.0731,-17.00873 h 2.51854 l 7.5671,17.00873 h -2.49554 l -2.17352,-4.85307 h -8.68262 l -2.26553,4.85307 z"
         style="font-style:normal;font-variant:normal;font-weight:normal;font-stretch:expanded;font-size:23.55231476px;font-family:'Swis721 Ex BT';-inkscape-font-specification:'Swis721 Ex BT Expanded';fill:#3c3c76;fill-opacity:1;stroke-width:0.26458329"
         id="path836" />
    </g>
    <flowRoot
       xml:space="preserve"
       id="flowRoot839"
       style="fill:black;fill-opacity:1;stroke:none;font-family:sans-serif;font-style:normal;font-weight:normal;font-size:16px;line-height:12;letter-spacing:0px;word-spacing:0px"><flowRegion
         id="flowRegion841"><rect
           id="rect843"
           width="191.4239"
           height="43.436558"
           x="204.55589"
           y="56.260941" /></flowRegion><flowPara
         id="flowPara845"></flowPara></flowRoot>  </g>
</svg>
